<?xml version="1.0" standalone="no"?>
<!DOCTYPE svg PUBLIC "-//W3C//DTD SVG 20010904//EN"
 "http://www.w3.org/TR/2001/REC-SVG-20010904/DTD/svg10.dtd">
<svg version="1.0" xmlns="http://www.w3.org/2000/svg"
 width="800.000000pt" height="800.000000pt" viewBox="0 0 800.000000 800.000000"
 preserveAspectRatio="xMidYMid meet">
<metadata>
Created by potrace 1.16, written by Peter Selinger 2001-2019
</metadata>
<g transform="translate(0.000000,800.000000) scale(0.100000,-0.100000)"
fill="black" stroke="none">
<path d="M3685 7984 c-193 -20 -336 -40 -480 -69 -656 -131 -1267 -425 -1790
-863 -116 -98 -379 -361 -477 -477 -503 -601 -809 -1301 -915 -2095 -23 -171
-26 -772 -5 -940 100 -792 383 -1467 870 -2075 124 -154 433 -463 587 -587
598 -479 1284 -770 2035 -864 159 -20 821 -20 980 0 751 94 1437 385 2035 864
154 124 463 433 587 587 487 608 770 1283 870 2075 21 168 18 769 -5 940 -106
794 -412 1494 -915 2095 -98 116 -361 379 -477 477 -593 497 -1288 803 -2059
909 -121 17 -215 22 -476 24 -179 1 -343 1 -365 -1z m-1405 -1935 l0 -301 23
6 c99 29 170 37 282 33 147 -6 210 -22 345 -89 93 -46 117 -64 205 -153 73
-72 111 -119 135 -167 19 -38 38 -68 42 -68 4 0 9 9 13 19 12 40 90 149 148
209 102 105 245 190 382 228 93 25 275 30 376 9 230 -46 437 -192 552 -390
l44 -75 38 64 c122 210 320 352 559 403 114 24 297 13 413 -24 226 -75 390
-216 493 -428 83 -169 83 -168 87 -677 l4 -448 -280 0 -280 0 -3 413 c-3 461
-2 454 -76 530 -61 64 -105 82 -197 82 -63 0 -89 -5 -120 -22 -53 -28 -99 -78
-124 -133 -20 -43 -21 -64 -21 -457 l0 -413 -285 0 -285 0 0 135 0 134 -93
-92 c-167 -167 -357 -246 -585 -247 -320 0 -614 184 -757 474 -3 8 -7 8 -10 0
-34 -68 -93 -152 -150 -213 -266 -283 -692 -343 -1029 -145 -93 55 -214 171
-274 264 -23 36 -56 101 -73 144 -59 152 -59 159 -59 962 l0 734 280 0 280 0
0 -301z m0 -2480 l0 -301 23 5 c226 53 368 48 542 -18 185 -69 365 -227 441
-387 10 -21 20 -38 23 -38 3 0 24 32 46 71 101 180 284 319 500 381 114 32
315 32 429 0 219 -63 421 -223 517 -411 l25 -48 40 71 c47 86 202 245 286 295
127 74 250 110 398 118 425 21 800 -290 860 -715 7 -49 10 -224 8 -477 l-3
-400 -277 -3 -278 -2 0 389 c0 244 -4 409 -11 441 -6 28 -25 69 -43 93 -122
160 -346 152 -451 -18 l-30 -48 -5 -426 -5 -426 -280 0 -280 0 -3 136 -3 137
-97 -98 c-85 -85 -110 -103 -202 -149 -140 -69 -232 -91 -377 -91 -127 0 -219
17 -322 60 -171 70 -323 205 -406 361 l-32 60 -51 -85 c-116 -190 -301 -325
-517 -377 -111 -26 -284 -26 -391 1 -256 65 -475 252 -570 488 -61 152 -58
107 -62 945 l-3 767 281 0 280 0 0 -301z"/>
<path d="M2434 5282 c-143 -50 -233 -191 -221 -346 6 -90 36 -156 97 -216 73
-74 127 -95 240 -95 84 0 102 3 151 28 63 30 125 92 161 159 20 37 23 57 23
148 0 98 -2 109 -30 158 -38 70 -112 136 -181 161 -68 26 -170 27 -240 3z"/>
<path d="M3940 5278 c-76 -30 -160 -115 -188 -191 -63 -168 9 -357 166 -434
50 -25 68 -28 152 -28 81 0 103 4 145 25 64 31 134 101 165 165 34 69 36 217
4 285 -32 67 -97 135 -161 166 -78 39 -203 44 -283 12z"/>
<path d="M2449 2805 c-244 -79 -320 -402 -135 -573 72 -67 118 -85 223 -90 83
-4 97 -2 150 22 71 33 136 94 171 161 37 73 43 197 11 280 -27 72 -100 150
-174 184 -64 30 -180 37 -246 16z"/>
<path d="M3966 2804 c-102 -32 -189 -117 -222 -216 -24 -74 -16 -197 18 -263
35 -67 100 -128 171 -161 53 -24 67 -26 150 -22 70 3 102 10 135 27 66 34 128
97 159 160 25 49 28 67 28 151 0 84 -3 101 -28 148 -61 115 -165 183 -291 189
-46 2 -89 -3 -120 -13z"/>
</g>
</svg>
